0
SECTION
2
HEADER
9
$INSUNITS
70
4
9
$ACADVER
1
AC1014
9
$HANDSEED
5
FFFF
0
ENDSEC
0
SECTION
2
TABLES
0
TABLE
2
VPORT
5
8
100
AcDbSymbolTable
0
ENDTAB
0
TABLE
2
LTYPE
5
5
100
AcDbSymbolTable
0
LTYPE
5
14
100
AcDbSymbolTableRecord
100
AcDbLinetypeTableRecord
2
BYBLOCK
70
0
0
LTYPE
5
15
100
AcDbSymbolTableRecord
100
AcDbLinetypeTableRecord
2
BYLAYER
70
0
0
ENDTAB
0
TABLE
2
LAYER
5
2
100
AcDbSymbolTable
70
2
0
LAYER
5
50
100
AcDbSymbolTableRecord
100
AcDbLayerTableRecord
2
0
70
0
6
CONTINUOUS
0
ENDTAB
0
TABLE
2
STYLE
5
3
100
AcDbSymbolTable
70
1
0
STYLE
5
11
100
AcDbSymbolTableRecord
100
AcDbTextStyleTableRecord
2
STANDARD
70
0
0
ENDTAB
0
TABLE
2
VIEW
5
6
100
AcDbSymbolTable
70
0
0
ENDTAB
0
TABLE
2
UCS
5
7
100
AcDbSymbolTable
70
0
0
ENDTAB
0
TABLE
2
APPID
5
9
100
AcDbSymbolTable
70
2
0
APPID
5
12
100
AcDbSymbolTableRecord
100
AcDbRegAppTableRecord
2
ACAD
70
0
0
ENDTAB
0
TABLE
2
DIMSTYLE
5
A
100
AcDbSymbolTable
70
1
0
ENDTAB
0
TABLE
2
BLOCK_RECORD
5
1
100
AcDbSymbolTable
70
1
0
BLOCK_RECORD
5
1F
100
AcDbSymbolTableRecord
100
AcDbBlockTableRecord
2
*MODEL_SPACE
0
BLOCK_RECORD
5
1B
100
AcDbSymbolTableRecord
100
AcDbBlockTableRecord
2
*PAPER_SPACE
0
ENDTAB
0
ENDSEC
0
SECTION
2
BLOCKS
0
BLOCK
5
20
100
AcDbEntity
100
AcDbBlockBegin
2
*MODEL_SPACE
0
ENDBLK
5
21
100
AcDbEntity
100
AcDbBlockEnd
0
BLOCK
5
1C
100
AcDbEntity
100
AcDbBlockBegin
2
*PAPER_SPACE
0
ENDBLK
5
1D
100
AcDbEntity
100
AcDbBlockEnd
0
ENDSEC
0
SECTION
2
ENTITIES
0
LINE
5
100
100
AcDbEntity
8
0
100
AcDbLine
10
-192.35304280661666
20
-37.9294634164687
30
0
11
171.78840286560927
21
13.92657626706751
31
0
0
LINE
5
101
100
AcDbEntity
8
0
100
AcDbLine
10
182.09306010358017
20
7.6001245043453656
30
0
11
192.95466049853502
21
-47.179968501256077
31
0
0
LINE
5
102
100
AcDbEntity
8
0
100
AcDbLine
10
190.29810889628084
20
-69.974882263006521
30
0
11
186.31412817918715
21
-81.609757883781597
31
0
0
LINE
5
103
100
AcDbEntity
8
0
100
AcDbLine
10
171.38419091012352
20
-90.041081542598263
30
0
11
-134.79448567043008
21
-85.304778626723248
31
0
0
SPLINE
5
104
100
AcDbEntity
8
0
100
AcDbSpline
70
4
71
5
72
26
73
20
74
0
42
0.000000001
43
0.0000000001
44
0.0000000001
40
0
40
0
40
0
40
0
40
0
40
0
40
0.066666666666666666
40
0.13333333333333333
40
0.20000000000000001
40
0.26666666666666666
40
0.33333333333333331
40
0.39999999999999997
40
0.46666666666666662
40
0.53333333333333333
40
0.59999999999999998
40
0.66666666666666663
40
0.73333333333333328
40
0.79999999999999993
40
0.86666666666666659
40
0.93333333333333324
40
1
40
1
40
1
40
1
40
1
40
1
41
1
41
1
41
1
41
1
41
1
41
1
41
1
41
1
41
1
41
1
41
1
41
1
41
1
41
1
41
1
41
1
41
1
41
1
41
1
41
1
10
171.78840286560927
20
13.92657626706751
30
0
10
172.06000716202215
20
13.978833725837694
30
0
10
172.5940396752836
20
14.074711074024464
30
0
10
173.36756056847122
20
14.1926146883782
30
0
10
174.34346266966429
20
14.297615390512519
30
0
10
175.46849571781152
20
14.339406163921705
30
0
10
176.4956252612476
20
14.288313889477804
30
0
10
177.42221825461002
20
14.140750234640686
30
0
10
178.24718854514674
20
13.893843867827167
30
0
10
178.97287983880364
20
13.546928206737634
30
0
10
179.60576151375139
20
13.102215390554292
30
0
10
180.15424912655294
20
12.563423093858841
30
0
10
180.62745686210096
20
11.935168473547069
30
0
10
181.03392116737461
20
11.222408499172268
30
0
10
181.38057545929007
20
10.43021966818776
30
0
10
181.67261472091434
20
9.5631504026501783
30
0
10
181.86534985094536
20
8.812424948232918
30
0
10
181.98775498192038
20
8.2182813969471233
30
0
10
182.05958697944442
20
7.8084637983433378
30
0
10
182.09306010358017
20
7.6001245043453656
30
0
0
SPLINE
5
105
100
AcDbEntity
8
0
100
AcDbSpline
70
4
71
5
72
21
73
15
74
0
42
0.000000001
43
0.0000000001
44
0.0000000001
40
0
40
0
40
0
40
0
40
0
40
0
40
0.10000000000000001
40
0.20000000000000001
40
0.30000000000000004
40
0.40000000000000002
40
0.5
40
0.59999999999999998
40
0.69999999999999996
40
0.79999999999999993
40
0.89999999999999991
40
1
40
1
40
1
40
1
40
1
40
1
41
1
41
1
41
1
41
1
41
1
41
1
41
1
41
1
41
1
41
1
41
1
41
1
41
1
41
1
41
1
10
192.95466049853502
20
-47.179968501256077
30
0
10
193.00257982620724
20
-47.615522413944085
30
0
10
193.08946989824281
20
-48.488431848179886
30
0
10
193.19295941630298
20
-49.803200793913817
30
0
10
193.27636956706598
20
-51.56721375802838
30
0
10
193.28360831726496
20
-53.791763690538239
30
0
10
193.18558329937829
20
-56.037506266670157
30
0
10
192.97437128745275
20
-58.306036661153485
30
0
10
192.64689074255458
20
-60.597975276967937
30
0
10
192.20909770838293
20
-62.912122990098034
30
0
10
191.66989719791329
20
-65.246686963649381
30
0
10
191.16435269929343
20
-67.129273547257682
30
0
10
190.7461614504416
20
-68.549071932557581
30
0
10
190.45030380500646
20
-69.499039561788123
30
0
10
190.29810889628084
20
-69.974882263006521
30
0
0
SPLINE
5
106
100
AcDbEntity
8
0
100
AcDbSpline
70
4
71
5
72
26
73
20
74
0
42
0.000000001
43
0.0000000001
44
0.0000000001
40
0
40
0
40
0
40
0
40
0
40
0
40
0.066666666666666666
40
0.13333333333333333
40
0.20000000000000001
40
0.26666666666666666
40
0.33333333333333331
40
0.39999999999999997
40
0.46666666666666662
40
0.53333333333333333
40
0.59999999999999998
40
0.66666666666666663
40
0.73333333333333328
40
0.79999999999999993
40
0.86666666666666659
40
0.93333333333333324
40
1
40
1
40
1
40
1
40
1
40
1
41
1
41
1
41
1
41
1
41
1
41
1
41
1
41
1
41
1
41
1
41
1
41
1
41
1
41
1
41
1
41
1
41
1
41
1
41
1
41
1
10
171.38419091012352
20
-90.041081542598263
30
0
10
171.67955991677229
20
-90.043303315537202
30
0
10
172.26365441498641
20
-90.045054689898507
30
0
10
173.11986586682195
20
-90.03960506329598
30
0
10
174.22132863054767
20
-90.016069711229662
30
0
10
175.52954739647063
20
-89.95737409138772
30
0
10
176.76711903480611
20
-89.864159190686877
30
0
10
177.93249187577828
20
-89.726792564789747
30
0
10
179.02548473583155
20
-89.530170138597228
30
0
10
180.04872090124476
20
-89.252026358083171
30
0
10
181.00686054129443
20
-88.865744492308707
30
0
10
181.90549478922262
20
-88.344558449807806
30
0
10
182.75042517520143
20
-87.665082866616729
30
0
10
183.54697561737146
20
-86.812808181251526
30
0
10
184.29959848084624
20
-85.783291333976081
30
0
10
185.01175473147768
20
-84.577434319568596
30
0
10
185.55102426773888
20
-83.474631519355981
30
0
10
185.93895481089896
20
-82.571533209476243
30
0
10
186.19028536368387
20
-81.935938035802394
30
0
10
186.31412817918715
20
-81.609757883781597
30
0
0
LINE
5
107
100
AcDbEntity
8
0
100
AcDbLine
10
-190.56605286509972
20
-75.00950470295632
30
0
11
-163.83477962588901
21
-82.175241871404069
31
0
0
SPLINE
5
108
100
AcDbEntity
8
0
100
AcDbSpline
70
4
71
5
72
21
73
15
74
0
42
0.000000001
43
0.0000000001
44
0.0000000001
40
0
40
0
40
0
40
0
40
0
40
0
40
0.10000000000000001
40
0.20000000000000001
40
0.30000000000000004
40
0.40000000000000002
40
0.5
40
0.59999999999999998
40
0.69999999999999996
40
0.79999999999999993
40
0.89999999999999991
40
1
40
1
40
1
40
1
40
1
40
1
41
1
41
1
41
1
41
1
41
1
41
1
41
1
41
1
41
1
41
1
41
1
41
1
41
1
41
1
41
1
10
-163.83477962588901
20
-82.175241871404069
30
0
10
-163.33626920142805
20
-82.308875411619397
30
0
10
-162.34243060068053
20
-82.567731558010223
30
0
10
-160.86121177187312
20
-82.930783461109286
30
0
10
-158.89666810931601
20
-83.365177301824644
30
0
10
-156.40978715709167
20
-83.829019133437797
30
0
10
-153.83252064425511
20
-84.218004753860484
30
0
10
-151.10874500234544
20
-84.536784309889157
30
0
10
-148.20608340839823
20
-84.791754194168689
30
0
10
-145.11918959244218
20
-84.990791968754252
30
0
10
-141.85428559290682
20
-85.140993922030717
30
0
10
-139.10882452017225
20
-85.226470069248975
30
0
10
-136.97878766671229
20
-85.272528215312605
30
0
10
-135.52775480181043
20
-85.295343575003798
30
0
10
-134.79448567043008
20
-85.304778626723248
30
0
0
SPLINE
5
109
100
AcDbEntity
8
0
100
AcDbSpline
70
4
71
5
72
36
73
30
74
0
42
0.000000001
43
0.0000000001
44
0.0000000001
40
0
40
0
40
0
40
0
40
0
40
0
40
0.040000000000000001
40
0.080000000000000002
40
0.12
40
0.16
40
0.20000000000000001
40
0.24000000000000002
40
0.28000000000000003
40
0.32000000000000001
40
0.35999999999999999
40
0.39999999999999997
40
0.43999999999999995
40
0.47999999999999993
40
0.51999999999999991
40
0.55999999999999994
40
0.59999999999999998
40
0.64000000000000001
40
0.68000000000000005
40
0.72000000000000008
40
0.76000000000000012
40
0.80000000000000016
40
0.84000000000000019
40
0.88000000000000023
40
0.92000000000000026
40
0.9600000000000003
40
1
40
1
40
1
40
1
40
1
40
1
41
1
41
1
41
1
41
1
41
1
41
1
41
1
41
1
41
1
41
1
41
1
41
1
41
1
41
1
41
1
41
1
41
1
41
1
41
1
41
1
41
1
41
1
41
1
41
1
41
1
41
1
41
1
41
1
41
1
41
1
10
-192.35304280661666
20
-37.9294634164687
30
0
10
-192.71395669924368
20
-38.009264158667854
30
0
10
-193.41356196714699
20
-38.18396619069123
30
0
10
-194.39630200868112
20
-38.491320051166909
30
0
10
-195.57294115714913
20
-38.991970358209407
30
0
10
-196.81980780754029
20
-39.771463629999133
30
0
10
-197.8429591698179
20
-40.709179956001329
30
0
10
-198.64548880298653
20
-41.812135539558611
30
0
10
-199.23538791251701
20
-43.090868369285701
30
0
10
-199.62608317851789
20
-44.55695676085827
30
0
10
-199.83590212813175
20
-46.217878542751677
30
0
10
-199.88798146539153
20
-48.072543999089412
30
0
10
-199.81013737784355
20
-50.106372863994544
30
0
10
-199.63486181913868
20
-52.286375792563206
30
0
10
-199.39554610109519
20
-54.566474880370976
30
0
10
-199.12270508688766
20
-56.892714322820353
30
0
10
-198.84033027320837
20
-59.208274940309657
30
0
10
-198.56188202003298
20
-61.458692394751736
30
0
10
-198.28696137541192
20
-63.596533403374558
30
0
10
-197.99597537480668
20
-65.587556872202583
30
0
10
-197.65353830578601
20
-67.410379891427553
30
0
10
-197.21599186740826
20
-69.053030171253994
30
0
10
-196.6378205416043
20
-70.510607665136888
30
0
10
-195.87791389733536
20
-71.782744385579804
30
0
10
-194.90747094525841
20
-72.871064299002384
30
0
10
-193.71157556066731
20
-73.777652586618288
30
0
10
-192.56950504240933
20
-74.359278899127119
30
0
10
-191.60835416305744
20
-74.715442829653483
30
0
10
-190.92121508336925
20
-74.917398590550121
30
0
10
-190.56605286509972
20
-75.00950470295632
30
0
0
LINE
5
110
100
AcDbEntity
8
0
100
AcDbLine
10
179.13971683227987
20
7.070265361879132
30
0
11
189.98642745456993
21
-47.634731607986097
31
0
0
SPLINE
5
111
100
AcDbEntity
8
0
100
AcDbSpline
70
0
71
3
72
11
73
7
74
0
42
0.000000001
43
0.0000000001
44
0.0000000001
40
0.0061659622879705082
40
0.0061659622879705082
40
0.0061659622879705082
40
0.0061659622879705082
40
0.54671642451253344
40
0.54671642451253344
40
0.54671642451253344
40
0.99874367089797222
40
0.99874367089797222
40
0.99874367089797222
40
0.99874367089797222
10
189.98642745456982
20
-47.634731607986105
30
0
10
190.38414663947844
20
-51.336829103349785
30
0
10
190.38210709614191
20
-55.085486522349697
30
0
10
189.83642241423746
20
-58.961375399795742
30
0
10
189.38010175336731
20
-62.202529554687665
30
0
10
188.55301185196777
20
-65.57872901935707
30
0
10
187.44991043656285
20
-69.032165883875848
30
0
0
LINE
5
112
100
AcDbEntity
8
0
100
AcDbLine
10
187.44991043656285
20
-69.032165883875848
30
0
11
183.49231389496978
21
-80.58998877219426
31
0
0
SPLINE
5
113
100
AcDbEntity
8
0
100
AcDbSpline
70
0
71
3
72
17
73
13
74
0
42
0.000000001
43
0.0000000001
44
0.0000000001
40
0.00055325984967516883
40
0.00055325984967516883
40
0.00055325984967516883
40
0.00055325984967516883
40
0.31705479159332606
40
0.31705479159332606
40
0.31705479159332606
40
0.52746618649713251
40
0.52746618649713251
40
0.52746618649713251
40
0.73883834018195804
40
0.73883834018195804
40
0.73883834018195804
40
0.99796553838152957
40
0.99796553838152957
40
0.99796553838152957
40
0.99796553838152957
10
171.41856469166524
20
-87.041254356173127
30
0
10
173.66993393698723
20
-87.057854815806451
30
0
10
175.68665440401418
20
-86.986665329983623
30
0
10
177.23643331417293
20
-86.778116644648335
30
0
10
178.26673209497983
20
-86.639472703353618
30
0
10
179.03896579508742
20
-86.439396814118396
30
0
10
179.62190966322373
20
-86.162253643755307
30
0
10
180.20751530944679
20
-85.883845010869862
30
0
10
180.68516229054342
20
-85.524869435233825
30
0
10
181.26534304535937
20
-84.80603732604736
30
0
10
181.9766033075268
20
-83.924800383611128
30
0
10
182.76333063306572
20
-82.500547024081285
30
0
10
183.49231389497018
20
-80.589988772194403
30
0
0
LINE
5
114
100
AcDbEntity
8
0
100
AcDbLine
10
171.41856469166524
20
-87.041254356173127
30
0
11
-134.7519856840108
21
-82.305077145206951
31
0
0
SPLINE
5
115
100
AcDbEntity
8
0
100
AcDbSpline
70
0
71
3
72
17
73
13
74
0
42
0.000000001
43
0.0000000001
44
0.0000000001
40
0
40
0
40
0
40
0
40
0.3677612058581663
40
0.3677612058581663
40
0.3677612058581663
40
0.70632212539648886
40
0.70632212539648886
40
0.70632212539648886
40
1
40
1
40
1
40
1.0001064237671091
40
1.0001064237671091
40
1.0001064237671091
40
1.0001064237671091
10
-163.05800753789538
20
-79.277548802199888
30
0
10
-160.10294918426595
20
-80.069698554665649
30
0
10
-157.2931302487471
20
-80.668797640662731
30
0
10
-154.21567277334373
20
-81.113393632801547
30
0
10
-151.38256581122852
20
-81.522688646859194
30
0
10
-148.24618653743966
20
-81.803068937086877
30
0
10
-144.71188183392127
20
-81.993908339514689
30
0
10
-141.64612015373132
20
-82.159448148929286
30
0
10
-138.31177781070426
20
-82.259272922189112
30
0
10
-134.75588754717214
20
-82.305026939519621
30
0
10
-134.75458692611855
20
-82.305043674748717
30
0
10
-134.75328630506476
20
-82.305060409977813
30
0
10
-134.75198568401322
20
-82.305077145206909
30
0
0
LINE
5
116
100
AcDbEntity
8
0
100
AcDbLine
10
-189.80110734104557
20
-72.108641337745766
30
0
11
-163.05800753789538
21
-79.277548802199888
31
0
0
SPLINE
5
117
100
AcDbEntity
8
0
100
AcDbSpline
70
0
71
3
72
32
73
28
74
0
42
0.000000001
43
0.0000000001
44
0.0000000001
40
0.0028611177253036785
40
0.0028611177253036785
40
0.0028611177253036785
40
0.0028611177253036785
40
0.13127792812264394
40
0.13127792812264394
40
0.13127792812264394
40
0.24974393879940293
40
0.24974393879940293
40
0.24974393879940293
40
0.37029569627397002
40
0.37029569627397002
40
0.37029569627397002
40
0.54825937844055073
40
0.54825937844055073
40
0.54825937844055073
40
0.69909109753725418
40
0.69909109753725418
40
0.69909109753725418
40
0.8119776291932842
40
0.8119776291932842
40
0.8119776291932842
40
0.92397456224441687
40
0.92397456224441687
40
0.92397456224441687
40
1
40
1
40
1
40
1.0002669664105239
40
1.0002669664105239
40
1.0002669664105239
40
1.0002669664105239
10
-191.81157769302061
20
-40.882622024887368
30
0
10
-193.38868105410839
20
-41.243953733739033
30
0
10
-194.45955969280416
20
-41.778372245037204
30
0
10
-195.14133428583074
20
-42.353183232394834
30
0
10
-195.77027932789122
20
-42.883453096244672
30
0
10
-196.14202821992933
20
-43.4322963435745
30
0
10
-196.43630236527474
20
-44.37322127014798
30
0
10
-196.73575758621161
20
-45.330712392724578
30
0
10
-196.88834053987873
20
-46.740952269479891
30
0
10
-196.84936846421877
20
-48.558558538039676
30
0
10
-196.79183621225152
20
-51.241786979153055
30
0
10
-196.35912996296872
20
-54.766335132400528
30
0
10
-195.94545593608427
20
-58.157385653000631
30
0
10
-195.59484976823572
20
-61.031443850375538
30
0
10
-195.27727090585461
20
-63.784936236418375
30
0
10
-194.8772549067117
20
-65.870751554201433
30
0
10
-194.57787213085663
20
-67.431832063723363
30
0
10
-194.21084317693581
20
-68.597042283916736
30
0
10
-193.7603946644536
20
-69.408118570547416
30
0
10
-193.3134958966788
20
-70.212803197141525
30
0
10
-192.80626275255227
20
-70.745185539734138
30
0
10
-191.98133806131565
20
-71.238991856400162
30
0
10
-191.42136504189358
20
-71.57419604787448
30
0
10
-190.70740565973267
20
-71.873606160802481
30
0
10
-189.81295938886598
20
-72.105567682968768
30
0
10
-189.80900870625905
20
-72.106592234561134
30
0
10
-189.80505802365229
20
-72.107616786153443
30
0
10
-189.8011073410475
20
-72.108641337745297
30
0
0
LINE
5
118
100
AcDbEntity
8
0
100
AcDbLine
10
-62.894183727974138
20
-22.523971624605288
30
0
11
172.28357776332246
21
10.966825639806199
31
0
0
SPLINE
5
119
100
AcDbEntity
8
0
100
AcDbSpline
70
0
71
3
72
23
73
19
74
0
42
0.000000001
43
0.0000000001
44
0.0000000001
40
-0.0035167732213153471
40
-0.0035167732213153471
40
-0.0035167732213153471
40
-0.0035167732213153471
40
0
40
0
40
0
40
0.28030043986946307
40
0.28030043986946307
40
0.28030043986946307
40
0.48078906176961012
40
0.48078906176961012
40
0.48078906176961012
40
0.69685298781286686
40
0.69685298781286686
40
0.69685298781286686
40
1
40
1
40
1
40
1.0034535412896812
40
1.0034535412896812
40
1.0034535412896812
40
1.0034535412896812
10
172.28357776332183
20
10.966825639806075
30
0
10
172.30745703123239
20
10.971420080596525
30
0
10
172.33133629914289
20
10.976014521386952
30
0
10
172.35521556705339
20
10.980608962177383
30
0
10
174.05701321757334
20
11.30803979347046
30
0
10
175.42715276548805
20
11.373453726591675
30
0
10
176.29650956900707
20
11.264922453384365
30
0
10
176.91832859846784
20
11.187294015096736
30
0
10
177.25533526280998
20
11.047700921310213
30
0
10
177.49239054032165
20
10.898335790061404
30
0
10
177.74786186564185
20
10.737366971154279
30
0
10
177.95656550481357
20
10.530632630391102
30
0
10
178.20894087024385
20
10.095889962471942
30
0
10
178.56303439886233
20
9.4859272386456102
30
0
10
178.91778640894867
20
8.4515773519406316
30
0
10
179.13104677105775
20
7.1242284884348894
30
0
10
179.13393679146512
20
7.1062407795831719
30
0
10
179.13682681187254
20
7.0882530707312208
30
0
10
179.1397168322797
20
7.0702653618812263
30
0
0
CIRCLE
5
120
100
AcDbEntity
8
0
100
AcDbCircle
10
148.12250624662244
20
-71.635816579722373
30
0
40
2.0000000000000009
210
0
220
0
230
1
0
CIRCLE
5
121
100
AcDbEntity
8
0
100
AcDbCircle
10
171.52250624662244
20
-71.635816579722373
30
0
40
2.0000000000000058
210
0
220
0
230
1
0
CIRCLE
5
122
100
AcDbEntity
8
0
100
AcDbCircle
10
165.49186007741238
20
-1.2219587227916895
30
0
40
2.0000000000000027
210
0
220
0
230
1
0
CIRCLE
5
123
100
AcDbEntity
8
0
100
AcDbCircle
10
170.04293118447438
20
-24.175123031410791
30
0
40
2
210
0
220
0
230
1
0
CIRCLE
5
124
100
AcDbEntity
8
0
100
AcDbCircle
10
150.66164806433491
20
-16.090207161904267
30
0
40
1.9999999999999993
210
0
220
0
230
1
0
CIRCLE
5
125
100
AcDbEntity
8
0
100
AcDbCircle
10
159.8225062466224
20
-54.19706662452203
30
0
40
2.0000000000000013
210
0
220
0
230
1
0
CIRCLE
5
126
100
AcDbEntity
8
0
100
AcDbCircle
10
13.441745092173543
20
-69.476954463797824
30
0
40
2.0000000000000009
210
0
220
0
230
1
0
CIRCLE
5
127
100
AcDbEntity
8
0
100
AcDbCircle
10
13.441745092173543
20
-29.476954463797824
30
0
40
1.9999999999999984
210
0
220
0
230
1
0
LINE
5
128
100
AcDbEntity
8
0
100
AcDbLine
10
-186.48356538743715
20
-40.137847389675173
30
0
11
-183.66388659989428
21
-59.938085053276104
31
0
0
LINE
5
129
100
AcDbEntity
8
0
100
AcDbLine
10
-62.894183727974138
20
-22.523971624605288
30
0
11
-60.074504940431275
21
-42.32420928820622
31
0
0
LINE
5
130
100
AcDbEntity
8
0
100
AcDbLine
10
-183.66388659989428
20
-59.938085053276104
30
0
11
-60.074504940431275
21
-42.32420928820622
31
0
0
LINE
5
131
100
AcDbEntity
8
0
100
AcDbLine
10
-191.81157769302061
20
-40.882622024887368
30
0
11
-186.48356538743715
21
-40.137847389675173
31
0
0
CIRCLE
5
132
100
AcDbEntity
8
0
100
AcDbCircle
10
42.955221495732033
20
-58.000749184307494
30
0
40
2
210
0
220
0
230
1
0
CIRCLE
5
133
100
AcDbEntity
8
0
100
AcDbCircle
10
38.404150388670061
20
-35.047584875688585
30
0
40
2.0000000000000027
210
0
220
0
230
1
0
CIRCLE
5
134
100
AcDbEntity
8
0
100
AcDbCircle
10
-143.5779490170587
20
-67.757760732674456
30
0
40
2.0000000000000009
210
0
220
0
230
1
0
CIRCLE
5
135
100
AcDbEntity
8
0
100
AcDbCircle
10
82.822506246622396
20
-54.19706662452203
30
0
40
2.0000000000000013
210
0
220
0
230
1
0
CIRCLE
5
136
100
AcDbEntity
8
0
100
AcDbCircle
10
71.122506246622436
20
-71.635816579722373
30
0
40
2.0000000000000009
210
0
220
0
230
1
0
CIRCLE
5
137
100
AcDbEntity
8
0
100
AcDbCircle
10
94.522506246622427
20
-71.635816579722373
30
0
40
2.0000000000000058
210
0
220
0
230
1
0
ENDSEC
0
SECTION
2
OBJECTS
0
DICTIONARY
5
C
100
AcDbDictionary
3
ACAD_GROUP
350
D
3
ACAD_MLINESTYLE
350
17
0
DICTIONARY
5
D
100
AcDbDictionary
0
DICTIONARY
5
1A
330
C
100
AcDbDictionary
0
DICTIONARY
5
17
100
AcDbDictionary
0
ENDSEC
0
EOF
